<svg id="visual" viewBox="0 0 1920 1080" width="1920" height="1080" xmlns="http://www.w3.org/2000/svg" xmlns:xlink="http://www.w3.org/1999/xlink" version="1.1"><rect x="0" y="0" width="1920" height="1080" fill="#ffffff"></rect><path d="M0 412L45.7 410.8C91.3 409.7 182.7 407.3 274.2 379.3C365.7 351.3 457.3 297.7 548.8 271.3C640.3 245 731.7 246 823 276.3C914.3 306.7 1005.7 366.3 1097 364.8C1188.3 363.3 1279.7 300.7 1371.2 275.5C1462.7 250.3 1554.3 262.7 1645.8 254.8C1737.3 247 1828.7 219 1874.3 205L1920 191L1920 0L1874.3 0C1828.7 0 1737.3 0 1645.8 0C1554.3 0 1462.7 0 1371.2 0C1279.7 0 1188.3 0 1097 0C1005.7 0 914.3 0 823 0C731.7 0 640.3 0 548.8 0C457.3 0 365.7 0 274.2 0C182.7 0 91.3 0 45.7 0L0 0Z" fill="#c4dbff" stroke-linecap="round" stroke-linejoin="miter"></path></svg>